<svg height="43" viewBox="0 0 149 43" width="149" xmlns="http://www.w3.org/2000/svg" xmlns:xlink="http://www.w3.org/1999/xlink"><linearGradient id="a" x1="29.435288%" x2="80.630918%" y1="45.317669%" y2="58.760231%"><stop offset="0" stop-color="#febe2d"/><stop offset="1" stop-color="#f85e23"/></linearGradient><linearGradient id="b" x1="-33.939826%" x2="153.690572%" y1="50.04095%" y2="50.04095%"><stop offset="0" stop-color="#fbaa19"/><stop offset="1" stop-color="#ef3e23"/></linearGradient><linearGradient id="c" x1="32.890865%" x2="67.113084%" y1="96.666649%" y2="3.111111%"><stop offset="0" stop-color="#f78d1e"/><stop offset="1" stop-color="#f37121"/></linearGradient><linearGradient id="d"><stop offset="0" stop-color="#febe2d"/><stop offset="1" stop-color="#f04e23"/></linearGradient><linearGradient id="e" x1="14.402841%" x2="63.227495%" xlink:href="#d" y1="75.177305%" y2="12.448031%"/><linearGradient id="f" x1="69.880324%" x2="33.101286%" y1="3.213529%" y2="81.580962%"><stop offset="0" stop-color="#ea4425"/><stop offset="1" stop-color="#fdbb27"/></linearGradient><linearGradient id="g" x1="-40.127178%" x2="144.708119%" y1="49.98932%" y2="49.98932%"><stop offset="0" stop-color="#f47920"/><stop offset="1" stop-color="#e93825"/></linearGradient><linearGradient id="h" x1="-143.227273%" x2="243.363636%" y1="49.916667%" y2="49.916667%"><stop offset="0" stop-color="#fdca0b"/><stop offset="1" stop-color="#f5841f"/></linearGradient><linearGradient id="i" x1="39.676973%" x2="63.886812%" y1="-25.012684%" y2="131.608321%"><stop offset="0" stop-color="#e73c25"/><stop offset="1" stop-color="#faa21b"/></linearGradient><linearGradient id="j" x1="-562.993864%" x2="562.904684%" y1="49.997982%" y2="49.997982%"><stop offset="0" stop-color="#fdba12"/><stop offset="1" stop-color="#f7921e"/></linearGradient><linearGradient id="k" x1="1.982613%" x2="106.167127%" xlink:href="#d" y1="41.501104%" y2="60.04415%"/><g fill="none" fill-rule="evenodd"><path d="m125.05 30.91c-.531834.0465037-.953496.4681664-1 1-.08.59.24 1 .75 1 .528244-.054128.945872-.471756 1-1 .069942-.2378068.022688-.4947007-.127299-.6920526-.149988-.197352-.38485-.3116638-.632701-.3079474zm7.36-5.71c-1.107823-.024691-2.146134.5382026-2.73 1.48l.2-1.4h-1.71l-1.09 7.53h1.71l.54-3.7c.054558-1.1674742.983081-2.1046349 2.15-2.17 1 0 1.47.65 1.32 1.7l-.6 4.17h1.72l.68-4.7c.26-1.79-.57-2.91-2.19-2.91zm7.21 0c-2.158887.0377633-3.941015 1.6990689-4.13 3.85-.32 2.26.88 3.81 3.07 3.81 1.178178.0129989 2.311234-.452492 3.14-1.29l-.77-1c-.534648.5255617-1.250418.8261851-2 .84-.465324.0252649-.92004-.1450478-1.254272-.4697845s-.517575-.7743566-.505728-1.2402155h5.19c.57-2.74-.25-4.47-2.72-4.47zm-2.33 3.24c.207188-1.0282165 1.091857-1.7805985 2.14-1.82.480353-.049049.954163.1409266 1.267575.5082375s.426456.8651143.302425 1.3317625zm9.83 2.56c-.307597.1730344-.648464.2787031-1 .31-.46 0-.7-.24-.6-1l.49-3.4h2l.19-1.33h-2l.3-2.08h-1.69l-.3 2.08h-1l-.18 1.33h1l-.53 3.72c-.23 1.55.59 2.26 1.74 2.26.651356-.0162852 1.286556-.206155 1.84-.55z" fill="url(#a)"/><path d="m44.62 22.83c.5388263-.0040514 1.0268532.3174113 1.2358665.8140637.2090132.4966525.0977057 1.0703416-.2818723 1.4527952s-.9524107.4980876-1.4506265.2928286c-.4982157-.2052591-.8233677-.690846-.8233677-1.2296875 0-.7306511.5893695-1.3245064 1.32-1.33zm13.21-3.69c1.1251033-.858419 2.4950401-1.3349187 3.91-1.36 1.6761637-.0241737 3.2794182.684326 4.39 1.94 1.2852379 1.6388232 1.7861107 3.7593065 1.37 5.8-.3376886 3.4790404-2.6870916 6.4353726-6 7.55-.6736624.1900615-1.3700438.2876222-2.07.29-1.5483949.0713238-3.0249246-.6575004-3.91-1.93l-.18 1.28c-.0235143.1201195-.1276246.2075722-.25.21h-3.09c-.0644125.004029-.1271003-.0217836-.17-.07-.0244532-.0575085-.0244532-.1224915 0-.18l1.07-7.38h-4c-.6218183-.005431-1.124569-.5081817-1.13-1.13-.0124687-.6037337.4480121-1.1124554 1.05-1.16h8.62c-.5999094.7351644-.9872276 1.6204631-1.12 2.56-.31 2.15.76 4.16 3.09 4.16 2.3184521-.109833 4.211276-1.8923129 4.46-4.2.3-2.11-.91-4.11-3.15-4.11h-9.83c-.6256959-.0054888-1.1300241-.51428-1.13-1.14.005431-.6218183.5081817-1.124569 1.13-1.13h2.85l.81-5.66c.0235143-.1201195.1276246-.2075722.25-.21h3.2c.0602316.0024121.11735.0274014.16.07.0244532.0575085.0244532.1224915 0 .18l-.81 5.62zm19.56 12.48c-1.0531171 1.1660409-2.5700759 1.8036033-4.14 1.74-3.94 0-5-2.89-4.51-6.31l1.26-8.61c.0228017-.1221122.1259798-.2129089.25-.22h3.15c.0625924.0014819.121259.0308153.16.08.0239618.0541336.0239618.1158664 0 .17l-1.12 7.75c-.26 1.84 0 3.5 2.15 3.49s3-1.48 3.33-3.42l1.13-7.85c.0228017-.1221122.1259798-.2129089.25-.22h3.17c.0625924.0014819.121259.0308153.16.08.0239618.0541336.0239618.1158664 0 .17l-2 14.24c-.0235143.1201195-.1276246.2075722-.25.21h-3c-.0644125.004029-.1271003-.0217836-.17-.07-.0413807-.0502247-.0595483-.1156284-.05-.18l.15-1.05zm10.86-12.11c1.0560183-1.1489202 2.5603096-1.7805765 4.12-1.73 3.91 0 5 2.88 4.48 6.34l-1.24 8.59c-.0152049.1207149-.118335.2109538-.24.21h-3.17c-.0615325.0040125-.1211855-.0220857-.16-.07-.0453866-.0480515-.0641012-.1154241-.05-.18l1.11-7.67c.26-1.81.07-3.53-2.12-3.52s-3 1.51-3.3 3.42l-1.14 7.86c-.0191719.1185613-.1199429.206736-.24.21h-3.17c-.0641674.0025973-.1262662-.0229728-.17-.07-.0256685-.0572547-.0256685-.1227453 0-.18l2-14.23c.019274-.1240818.1244746-.2166584.25-.22h3c.0633359-.0016784.1233412.0283242.16.08.0453367.0439706.0643118.1084857.05.17l-.15 1zm14.89 0c1.056018-1.1489202 2.56031-1.7805765 4.12-1.73 3.91 0 5 2.88 4.48 6.34l-1.24 8.59c-.019172.1185613-.119943.206736-.24.21h-3.17c-.061532.0040125-.121186-.0220857-.16-.07-.045387-.0480515-.064101-.1154241-.05-.18l1.12-7.67c.26-1.81.07-3.53-2.12-3.52s-3 1.51-3.31 3.42l-1.13 7.86c-.019172.1185613-.119943.206736-.24.21h-3.2c-.0641674.0025973-.1262662-.0229728-.17-.07-.0256685-.0572547-.0256685-.1227453 0-.18l2-14.23c.0185019-.1205452.1183039-.2120303.24-.22h3c.063336-.0016784.123341.0283242.16.08.040929.0465159.059228.108732.05.17l-.15 1zm12.4 12.62-3-13.61c-.033784-.0623865-.033784-.1376135 0-.2.04406-.061384.114456-.0984344.19-.1000355h3.38c.102-.0018289.190585.0698826.21.1700355l1.75 8.81 4.26-8.83c.03633-.0898257.123111-.1489942.22-.1500355h3.45c.076031-.0004936.145787.0421347.18.1100355.039299.0680682.039299.1519318 0 .22l-9.78 19.21c-.039374.0859108-.125499.1407177-.22.1401527h-3.39c-.076714.0029154-.147735-.0404866-.18-.1101527-.039299-.0680682-.039299-.1519318 0-.22z" fill="#183d6d"/><path d="m21 6.85 9.87 5.36-9.12-12.21c-1.4740823 1.97822822-1.7611016 4.59967135-.75 6.85z" fill="url(#b)"/><path d="m16.54 26.73c1.2400264.000049 2.2462599 1.0033715 2.249911 2.2433925.0036319 1.2400211-.9966914 2.2492361-2.2366961 2.2566075-1.2400047.0072927-2.2521924-.9900226-2.2632149-2.23-.0053353-.6001948.2293602-1.1776426.6518967-1.603935s.9978848-.666065 1.5981033-.666065z" fill="url(#c)"/><path d="m9.67 1.79 27.64 15c.4611606.2243241.7538473.6921741.7538473 1.205s-.2926867.9806759-.7538473 1.205c-2.0904476 1.2579157-4.3798358 2.1506757-6.77 2.64l-5.75 11.8s-1.82 4.14-6.83 2.55c2.1-2.1 4.64-4 4.64-7.23 0-3.3523684-2.7176316-6.0699999-6.07-6.0699999s-6.07 2.7176315-6.07 6.0699999c0 4.22 4.16 6 6.47 8.93 1.0403951 1.4727359.902531 3.473854-.33 4.79-2.87-2.84-8.42-7.63-10.7-10.77-1.24652148-1.5830934-1.93237314-3.5351328-1.95-5.55.22432898-4.3921007 3.17448134-8.1737323 7.38-9.46 1.2591396-.3667637 2.5697077-.5255181 3.88-.47 1.8269827.1384111 3.6016805.6742333 5.2 1.57 2.45 1.44 3.64 1.06 5.33-.36 1-.82 2.09-3.49.4-4.11-.552553-.1802749-1.117339-.3206359-1.69-.42-3.14-.61-8.63-1.19-10.65-2.34-3.21-1.77-5.37-5.42-4.13-8.98z" fill="url(#e)"/><path d="m22.55 28.99c1.28-6.73-5.55-13.15-10.79-12.19l.35-.08c-.28.06-.55.13-.81.21-4.20551866 1.2862677-7.15567102 5.0678993-7.38 9.46.03187229 2.0207619.73553172 3.9734168 2 5.55 2.28 3.14 7.83 7.93 10.7 10.77 1.232531-1.316146 1.3703951-3.3172641.33-4.79-2.36-2.92-6.52-4.71-6.52-8.92 0-3.3523684 2.7176316-6.07 6.07-6.07s6.07 2.7176316 6.07 6.07z" fill="url(#f)"/><path d="m9.67 1.79 21 11.44.6.33c.5.39 1 1.17.35 2.61-1 2.15-5 4.23-9.61 2.6 1.44.42 2.42-.06 3.68-1.12 1-.82 2.09-3.49.4-4.11-.552553-.1802749-1.117339-.3206359-1.69-.42-3.14-.61-8.63-1.19-10.65-2.34-3.16-1.78-5.32-5.43-4.08-8.99z" fill="url(#g)"/><path d="m9.67 1.79c2.17 8 15.38 8.66 22 12z" fill="url(#h)"/><path d="m16.9 37.92c-2.31-2.92-6.47-4.71-6.47-8.92.0118178-3.053398 2.2899738-5.6227468 5.32-6-4.8256569.0164606-8.7335394 3.9243431-8.75001461 8.75-.00107918.5913162.05924443 1.1811471.18001461 1.76 1.91 2.16 4.67 4.71 7 6.87.91.85 1.75 1.65 2.44 2.33.5741689-.6652452.924076-1.4945249 1-2.37.0546432-.866533-.2005516-1.7242711-.72-2.42z" fill="url(#i)"/><path d="m22.52 29.71c.0315717-.2387319.0482706-.4791957.05-.72 1.26-6.73-5.57-13.15-10.81-12.19 1.118886-.2703875 2.2697792-.3848038 3.42-.34 6.87.28 8.79 7.62 7.34 13.25z" fill="url(#j)"/><path d="m2.26 14.84c1.24977937.0055057 2.26 1.0202085 2.26 2.27v2.26h-2.26c-1.24816353 0-2.26-1.0118365-2.26-2.26 0-1.2497915 1.01022063-2.2644943 2.26-2.27z" fill="url(#k)"/></g></svg>