<svg viewBox="0 0 148.17 42.71" xmlns="http://www.w3.org/2000/svg" xmlns:xlink="http://www.w3.org/1999/xlink"><linearGradient id="a" gradientUnits="userSpaceOnUse" x1="131.15" x2="143.52" y1="25.3" y2="33.64"><stop offset="0" stop-color="#febe2d"/><stop offset="1" stop-color="#f85e23"/></linearGradient><linearGradient id="b" gradientUnits="userSpaceOnUse" x1="16.85" x2="36.49" y1="6.11" y2="6.11"><stop offset="0" stop-color="#fbaa19"/><stop offset="1" stop-color="#ef3e23"/></linearGradient><linearGradient id="c" gradientUnits="userSpaceOnUse" x1="15.77" x2="17.31" y1="31.08" y2="26.87"><stop offset="0" stop-color="#f78d1e"/><stop offset="1" stop-color="#f37121"/></linearGradient><linearGradient id="d" gradientUnits="userSpaceOnUse" x1="3.56" x2="27.49" y1="32.53" y2="6.88"><stop offset="0" stop-color="#febe2d"/><stop offset="1" stop-color="#f04e23"/></linearGradient><linearGradient id="e" gradientUnits="userSpaceOnUse" x1="20.47" x2="7.23" y1="17.54" y2="37.92"><stop offset="0" stop-color="#ea4425"/><stop offset="1" stop-color="#fdbb27"/></linearGradient><linearGradient id="f" gradientUnits="userSpaceOnUse" x1=".24" x2="42.04" y1="10.57" y2="10.57"><stop offset="0" stop-color="#f47920"/><stop offset="1" stop-color="#e93825"/></linearGradient><linearGradient id="g" gradientUnits="userSpaceOnUse" x1="-21.84" x2="63.21" y1="7.78" y2="7.78"><stop offset="0" stop-color="#fdca0b"/><stop offset="1" stop-color="#f5841f"/></linearGradient><linearGradient id="h" gradientUnits="userSpaceOnUse" x1="8.54" x2="17.39" y1="18.07" y2="48.94"><stop offset="0" stop-color="#e73c25"/><stop offset="1" stop-color="#faa21b"/></linearGradient><linearGradient id="i" gradientUnits="userSpaceOnUse" x1="-51.37" x2="74.88" y1="23.08" y2="23.08"><stop offset="0" stop-color="#fdba12"/><stop offset="1" stop-color="#f7921e"/></linearGradient><linearGradient id="j" x1=".08" x2="4.81" xlink:href="#d" y1="16.72" y2="17.56"/><g fill-rule="evenodd"><path d="m125.05 30.91a1.1 1.1 0 0 0 -1 1c-.08.59.24 1 .75 1a1.12 1.12 0 0 0 1-1 .78.78 0 0 0 -.76-1zm7.36-5.71a3.13 3.13 0 0 0 -2.73 1.48l.2-1.4h-1.71l-1.09 7.53h1.71l.54-3.7a2.28 2.28 0 0 1 2.15-2.17c1 0 1.47.65 1.32 1.7l-.6 4.17h1.72l.68-4.7c.26-1.79-.57-2.91-2.19-2.91zm7.21 0a4.22 4.22 0 0 0 -4.13 3.85c-.32 2.26.88 3.81 3.07 3.81a4.35 4.35 0 0 0 3.14-1.29l-.77-1a2.93 2.93 0 0 1 -2 .84 1.67 1.67 0 0 1 -1.76-1.71h5.19c.57-2.74-.25-4.47-2.72-4.47zm-2.33 3.24a2.27 2.27 0 0 1 2.14-1.82 1.47 1.47 0 0 1 1.57 1.84zm9.83 2.56a2.49 2.49 0 0 1 -1 .31c-.46 0-.7-.24-.6-1l.49-3.4h2l.19-1.33h-2l.3-2.08h-1.69l-.3 2.08h-1l-.18 1.33h1l-.53 3.72c-.23 1.55.59 2.26 1.74 2.26a3.66 3.66 0 0 0 1.84-.55z" fill="url(#a)"/><path d="m44.62 22.83a1.33 1.33 0 1 1 -1.32 1.33 1.33 1.33 0 0 1 1.32-1.33zm13.21-3.69a6.64 6.64 0 0 1 3.91-1.36 5.75 5.75 0 0 1 4.39 1.94 7.1 7.1 0 0 1 1.37 5.8 8.87 8.87 0 0 1 -6 7.55 7.72 7.72 0 0 1 -2.07.29 4.51 4.51 0 0 1 -3.91-1.93l-.18 1.28a.26.26 0 0 1 -.25.21h-3.09a.21.21 0 0 1 -.17-.07.23.23 0 0 1 0-.18l1.07-7.38h-4a1.14 1.14 0 0 1 -1.13-1.13 1.14 1.14 0 0 1 1.05-1.16h8.62a5.2 5.2 0 0 0 -1.12 2.56c-.31 2.15.76 4.16 3.09 4.16a4.71 4.71 0 0 0 4.46-4.2c.3-2.11-.91-4.11-3.15-4.11h-9.83a1.14 1.14 0 0 1 -1.13-1.14 1.14 1.14 0 0 1 1.13-1.13h2.85l.81-5.66a.26.26 0 0 1 .25-.21h3.2a.24.24 0 0 1 .16.07.23.23 0 0 1 0 .18l-.81 5.62zm19.56 12.48a5.29 5.29 0 0 1 -4.14 1.74c-3.94 0-5-2.89-4.51-6.31l1.26-8.61a.27.27 0 0 1 .25-.22h3.15a.21.21 0 0 1 .16.08.21.21 0 0 1 0 .17l-1.12 7.75c-.26 1.84 0 3.5 2.15 3.49s3-1.48 3.33-3.42l1.13-7.85a.27.27 0 0 1 .25-.22h3.17a.21.21 0 0 1 .16.08.21.21 0 0 1 0 .17l-2 14.24a.26.26 0 0 1 -.25.21h-3a.21.21 0 0 1 -.17-.07.23.23 0 0 1 -.05-.18l.15-1.05zm10.86-12.11a5.36 5.36 0 0 1 4.12-1.73c3.91 0 5 2.88 4.48 6.34l-1.24 8.59a.24.24 0 0 1 -.24.21h-3.17a.19.19 0 0 1 -.16-.07.2.2 0 0 1 -.05-.18l1.11-7.67c.26-1.81.07-3.53-2.12-3.52s-3 1.51-3.3 3.42l-1.14 7.86a.25.25 0 0 1 -.24.21h-3.17a.22.22 0 0 1 -.17-.07.22.22 0 0 1 0-.18l2-14.23a.26.26 0 0 1 .25-.22h3a.19.19 0 0 1 .16.08.18.18 0 0 1 .05.17l-.15 1zm14.89 0a5.36 5.36 0 0 1 4.12-1.73c3.91 0 5 2.88 4.48 6.34l-1.24 8.59a.25.25 0 0 1 -.24.21h-3.17a.19.19 0 0 1 -.16-.07.2.2 0 0 1 -.05-.18l1.12-7.67c.26-1.81.07-3.53-2.12-3.52s-3 1.51-3.31 3.42l-1.13 7.86a.25.25 0 0 1 -.24.21h-3.2a.22.22 0 0 1 -.17-.07.22.22 0 0 1 0-.18l2-14.23a.26.26 0 0 1 .24-.22h3a.19.19 0 0 1 .16.08.21.21 0 0 1 .05.17l-.15 1zm12.4 12.62-3-13.61a.21.21 0 0 1 0-.2.24.24 0 0 1 .19-.1h3.38a.21.21 0 0 1 .21.17l1.75 8.81 4.26-8.83a.24.24 0 0 1 .22-.15h3.45a.2.2 0 0 1 .18.11.22.22 0 0 1 0 .22l-9.78 19.21a.24.24 0 0 1 -.22.14h-3.39a.19.19 0 0 1 -.18-.11.22.22 0 0 1 0-.22z" fill="#fff"/><path d="m21 6.85 9.87 5.36-9.12-12.21a6.8 6.8 0 0 0 -.75 6.85z" fill="url(#b)"/><path d="m16.54 26.73a2.25 2.25 0 1 1 -2.25 2.27 2.25 2.25 0 0 1 2.25-2.27z" fill="url(#c)"/><path d="m9.67 1.79 27.64 15a1.34 1.34 0 0 1 0 2.41 21.49 21.49 0 0 1 -6.77 2.64l-5.75 11.8s-1.82 4.14-6.83 2.55c2.1-2.1 4.64-4 4.64-7.23a6.07 6.07 0 0 0 -12.14 0c0 4.22 4.16 6 6.47 8.93a3.8 3.8 0 0 1 -.33 4.79c-2.87-2.84-8.42-7.63-10.7-10.77a9.1 9.1 0 0 1 -1.95-5.55 10.45 10.45 0 0 1 7.38-9.46 12.05 12.05 0 0 1 3.88-.47 12.58 12.58 0 0 1 5.2 1.57c2.45 1.44 3.64 1.06 5.33-.36 1-.82 2.09-3.49.4-4.11a12.14 12.14 0 0 0 -1.69-.42c-3.14-.61-8.63-1.19-10.65-2.34-3.21-1.77-5.37-5.42-4.13-8.98z" fill="url(#d)"/><path d="m22.55 28.99c1.28-6.73-5.55-13.15-10.79-12.19l.35-.08q-.42.09-.81.21a10.45 10.45 0 0 0 -7.38 9.46 9.1 9.1 0 0 0 2 5.55c2.28 3.14 7.83 7.93 10.7 10.77a3.8 3.8 0 0 0 .33-4.79c-2.36-2.92-6.52-4.71-6.52-8.92a6.07 6.07 0 0 1 12.14 0z" fill="url(#e)"/><path d="m9.67 1.79 21 11.44.6.33c.5.39 1 1.17.35 2.61-1 2.15-5 4.23-9.61 2.6 1.44.42 2.42-.06 3.68-1.12 1-.82 2.09-3.49.4-4.11a12.14 12.14 0 0 0 -1.69-.42c-3.14-.61-8.63-1.19-10.65-2.34-3.16-1.78-5.32-5.43-4.08-8.99z" fill="url(#f)"/><path d="m9.67 1.79c2.17 8 15.38 8.66 22 12z" fill="url(#g)"/><path d="m16.9 37.92c-2.31-2.92-6.47-4.71-6.47-8.92a6.07 6.07 0 0 1 5.32-6 8.78 8.78 0 0 0 -8.75 8.75 8.54 8.54 0 0 0 .18 1.76c1.91 2.16 4.67 4.71 7 6.87.91.85 1.75 1.65 2.44 2.33a4.18 4.18 0 0 0 1-2.37 3.66 3.66 0 0 0 -.72-2.42z" fill="url(#h)"/><path d="m22.52 29.71a5.81 5.81 0 0 0 .05-.72c1.26-6.73-5.57-13.15-10.81-12.19a12.49 12.49 0 0 1 3.42-.34c6.87.28 8.79 7.62 7.34 13.25z" fill="url(#i)"/><path d="m2.26 14.84a2.27 2.27 0 0 1 2.26 2.27v2.26h-2.26a2.26 2.26 0 0 1 -2.26-2.26 2.27 2.27 0 0 1 2.26-2.27z" fill="url(#j)"/></g></svg>
