<svg fill="none" height="281" viewBox="0 0 250 281" width="250" xmlns="http://www.w3.org/2000/svg" xmlns:xlink="http://www.w3.org/1999/xlink"><linearGradient id="a" gradientUnits="userSpaceOnUse" x1="110.562" x2="239.472" y1="40.0816" y2="40.0816"><stop offset="0" stop-color="#fbaa19"/><stop offset="1" stop-color="#ef3e23"/></linearGradient><linearGradient id="b" gradientUnits="userSpaceOnUse" x1="103.549" x2="113.662" y1="204.038" y2="176.399"><stop offset="0" stop-color="#f78d1e"/><stop offset="1" stop-color="#f37121"/></linearGradient><linearGradient id="c"><stop offset="0" stop-color="#febe2d"/><stop offset="1" stop-color="#f04e23"/></linearGradient><linearGradient id="d" gradientUnits="userSpaceOnUse" x1="23.3843" x2="180.496" xlink:href="#c" y1="213.825" y2="45.4642"/><linearGradient id="e" gradientUnits="userSpaceOnUse" x1="134.587" x2="47.6526" y1="115.282" y2="249.063"><stop offset="0" stop-color="#ea4425"/><stop offset="1" stop-color="#fdbb27"/></linearGradient><linearGradient id="f" gradientUnits="userSpaceOnUse" x1="1.54538" x2="275.905" y1="69.411" y2="69.411"><stop offset="0" stop-color="#f47920"/><stop offset="1" stop-color="#e93825"/></linearGradient><linearGradient id="g" gradientUnits="userSpaceOnUse" x1="-143.337" x2="414.9" y1="51.1468" y2="51.1468"><stop offset="0" stop-color="#fdca0b"/><stop offset="1" stop-color="#f5841f"/></linearGradient><linearGradient id="h" gradientUnits="userSpaceOnUse" x1="56.0881" x2="114.204" y1="118.626" y2="321.29"><stop offset="0" stop-color="#e73c25"/><stop offset="1" stop-color="#faa21b"/></linearGradient><linearGradient id="i" gradientUnits="userSpaceOnUse" x1="-337.199" x2="491.46" y1="151.528" y2="151.528"><stop offset="0" stop-color="#fdba12"/><stop offset="1" stop-color="#f7921e"/></linearGradient><linearGradient id="j" gradientUnits="userSpaceOnUse" x1=".526603" x2="31.5729" xlink:href="#c" y1="110.017" y2="115.529"/><g clip-rule="evenodd" fill-rule="evenodd"><path d="m137.801 44.6445 64.98 35.453-59.729-80.0975c-9.845 13.1307-11.814 30.2007-5.251 44.6445z" fill="url(#a)"/><path d="m108.331 175.277c7.876 0 14.44 6.566 14.44 15.101 0 7.878-6.564 14.443-15.097 14.443-7.876 0-14.4396-6.565-14.4396-14.443.6563-7.879 7.2196-15.101 15.0966-15.101z" fill="url(#b)"/><path d="m63.6824 12.0684 181.1566 98.4806c4.594 1.969 5.907 7.222 3.938 11.817-.656 1.97-1.969 3.283-3.938 3.94-13.784 8.535-28.88 14.443-44.633 17.07l-38.069 77.471s-11.815 26.918-44.633 16.413c13.784-13.787 30.193-26.261 30.193-47.27 0-22.323-17.722-40.049-40.038-40.049-22.3166 0-40.0384 17.726-40.0384 40.049 0 27.574 27.5672 39.392 42.6634 58.431 6.564 9.849 5.907 22.979-1.969 31.514-18.3781-18.383-54.4781-49.897-69.5744-70.249-7.8764-10.505-12.471-22.979-13.1273-36.11 1.3127-28.887 21.0036-53.836 48.5709-62.371 8.5327-2.626 17.0655-3.282 25.5982-3.282 11.8146.656 23.6286 4.595 34.1306 10.504 16.409 9.192 23.629 7.222 34.788-2.626 6.563-5.252 13.783-22.9787 2.625-26.9179-3.938-1.3131-7.22-1.9696-11.158-2.6261-20.347-3.9392-56.447-7.8785-69.5747-15.1004-21.0036-11.8176-35.4436-36.1095-26.9109-59.0882z" fill="url(#d)"/><path d="m147.697 190.381c8.533-43.988-36.1-86.006-70.8873-80.098l2.6254-.656c-1.9691.656-3.9382.656-5.2509 1.313-27.5673 8.535-47.2582 33.483-48.5709 62.371 0 13.131 4.5945 26.261 13.1273 36.109 15.0963 20.353 51.1963 51.867 70.2304 70.906 7.877-8.535 9.19-21.665 1.97-31.513-15.7532-19.04-42.6641-30.858-42.6641-58.432 0-22.322 17.7218-40.049 40.0381-40.049 22.316 0 40.038 17.727 39.382 40.049z" fill="url(#e)"/><path d="m63.6374 11.8203 137.8366 74.8452 3.938 1.9696c3.282 2.6261 6.564 7.8784 2.625 17.0699-6.563 13.787-32.818 27.575-63.01 17.07 9.189 2.626 15.752-.657 24.285-7.222 6.564-5.252 13.784-22.9787 2.625-26.9179-3.938-1.3131-7.22-1.9696-11.158-2.6262-20.347-3.9392-56.447-7.8784-69.5743-15.1003-21.66-11.8177-36.1-36.1095-27.5673-59.0883z" fill="url(#f)"/><path d="m63.6797 11.8203c14.44 52.5229 101.0803 57.1187 144.4003 78.7844z" fill="url(#g)"/><path d="m110.929 248.826c-15.0961-19.04-42.6634-30.857-42.6634-58.432 0-20.352 15.0963-36.766 34.7874-39.392-31.5056 0-57.1038 25.605-57.1038 57.775 0 3.939.6564 7.879 1.3127 11.818 12.471 14.444 30.8491 30.857 45.9455 45.301 5.9073 5.252 11.8146 11.161 15.7526 15.1 3.938-4.596 5.907-9.848 6.564-15.757.656-5.909-1.313-11.817-4.595-16.413z" fill="url(#h)"/><path d="m147.657 194.989c0-1.313 0-3.283 0-4.596 8.533-43.988-36.757-86.006-70.8875-80.097 7.22-1.97 15.0964-2.626 22.3164-1.97 45.2891 1.313 58.4161 49.897 48.5711 86.663z" fill="url(#i)"/><path d="m15.0964 97.4199c7.8763 0 15.0963 6.5651 15.0963 15.1001v15.101h-15.0963c-7.8764 0-15.0964-6.566-15.0964-15.1001 0-7.878 6.56364-15.1001 15.0964-15.1001z" fill="url(#j)"/></g></svg>
